<svg width="100" height="100" viewBox="0 0 100 100" fill="none" xmlns="http://www.w3.org/2000/svg">
  <circle cx="50" cy="50" r="45" fill="url(#paint0_linear)" />
  <circle cx="50" cy="50" r="40" fill="white" />
  <circle cx="50" cy="50" r="35" fill="url(#paint1_linear)" />
  <path d="M37 35H42V65H37V35Z" fill="white"/>
  <path d="M48 35C48 35 55 35 59 35C63 35 66 38 66 42C66 46 63 49 59 49H48V35Z" fill="white"/>
  <path d="M48 51H59C63 51 66 54 66 58C66 62 63 65 59 65H48V51Z" fill="white"/>
  <defs>
    <linearGradient id="paint0_linear" x1="10" y1="15" x2="90" y2="85" gradientUnits="userSpaceOnUse">
      <stop stop-color="#F97316" />
      <stop offset="1" stop-color="#EA580C" />
    </linearGradient>
    <linearGradient id="paint1_linear" x1="20" y1="25" x2="80" y2="75" gradientUnits="userSpaceOnUse">
      <stop stop-color="#F97316" />
      <stop offset="1" stop-color="#EA580C" />
    </linearGradient>
  </defs>
</svg> 